<?xml version="1.0" encoding="UTF-8" standalone="no"?>
<!-- Created with Inkscape (http://www.inkscape.org/) -->

<svg
   width="663.42578mm"
   height="250.10913mm"
   viewBox="0 0 663.42578 250.10913"
   version="1.1"
   id="svg1313"
   inkscape:version="1.1 (c68e22c387, 2021-05-23)"
   sodipodi:docname="logo.svg"
   xmlns:inkscape="http://www.inkscape.org/namespaces/inkscape"
   xmlns:sodipodi="http://sodipodi.sourceforge.net/DTD/sodipodi-0.dtd"
   xmlns="http://www.w3.org/2000/svg"
   xmlns:svg="http://www.w3.org/2000/svg">
  <sodipodi:namedview
     id="namedview1315"
     pagecolor="#ffffff"
     bordercolor="#666666"
     borderopacity="1.0"
     inkscape:pageshadow="2"
     inkscape:pageopacity="0.0"
     inkscape:pagecheckerboard="0"
     inkscape:document-units="mm"
     showgrid="false"
     inkscape:zoom="0.18488392"
     inkscape:cx="1054.7158"
     inkscape:cy="565.21952"
     inkscape:window-width="1440"
     inkscape:window-height="837"
     inkscape:window-x="-8"
     inkscape:window-y="-8"
     inkscape:window-maximized="1"
     inkscape:current-layer="layer1" />
  <defs
     id="defs1310">
    <clipPath
       clipPathUnits="userSpaceOnUse"
       id="clipPath1350">
      <path
         d="M 0,717 H 1893.5 V 0 H 0 Z"
         id="path1348" />
    </clipPath>
  </defs>
  <g
     inkscape:label="Capa 1"
     inkscape:groupmode="layer"
     id="layer1"
     transform="translate(202.69244,-44.442876)">
    <g
       id="g1346"
       clip-path="url(#clipPath1350)"
       transform="matrix(0.35277777,0,0,-0.35277777,-205.23646,295.22342)">
      <g
         id="g1352"
         transform="translate(101.0208,147.8771)">
        <path
           d="m 0,0 v 436.554 c 0,5.215 4.469,10.43 10.428,10.43 h 201.143 c 5.959,0 10.43,-5.215 10.43,-10.43 0,-5.959 -4.471,-10.43 -10.43,-10.43 H 20.859 V 245.842 h 124.409 c 5.959,0 10.43,-5.214 10.43,-10.43 0,-5.96 -4.471,-10.429 -10.43,-10.429 H 20.859 V 10.428 h 190.712 c 5.959,0 10.43,-4.467 10.43,-10.428 0,-5.214 -4.471,-10.428 -10.43,-10.428 H 10.428 C 4.469,-10.428 0,-5.214 0,0"
           style="fill:#1c1c1b;fill-opacity:1;fill-rule:nonzero;stroke:none"
           id="path1354" />
      </g>
      <g
         id="g1356"
         transform="translate(101.0208,147.8771)">
        <path
           d="m 0,0 v 436.554 c 0,5.215 4.469,10.43 10.428,10.43 h 201.143 c 5.959,0 10.43,-5.215 10.43,-10.43 0,-5.959 -4.471,-10.43 -10.43,-10.43 H 20.859 V 245.842 h 124.409 c 5.959,0 10.43,-5.214 10.43,-10.43 0,-5.96 -4.471,-10.429 -10.43,-10.429 H 20.859 V 10.428 h 190.712 c 5.959,0 10.43,-4.467 10.43,-10.428 0,-5.214 -4.471,-10.428 -10.43,-10.428 H 10.428 C 4.469,-10.428 0,-5.214 0,0 Z"
           style="fill:none;stroke:#1c1c1b;stroke-width:11.703;stroke-linecap:butt;stroke-linejoin:miter;stroke-miterlimit:10;stroke-dasharray:none;stroke-opacity:1"
           id="path1358" />
      </g>
      <g
         id="g1360"
         transform="translate(650.0576,136.7019)">
        <path
           d="M 0,0 C -3.726,0 -7.45,2.237 -8.94,5.961 L -207.102,403.777 V 8.942 c 0,-5.962 -4.471,-10.432 -10.43,-10.432 -5.959,0 -10.428,4.47 -10.428,10.432 v 439.533 c 0,5.214 4.469,10.43 10.428,10.43 3.726,0 7.45,-2.236 9.685,-5.961 L -10.43,55.129 v 394.836 c 0,5.959 4.471,10.428 10.43,10.428 5.959,0 10.43,-4.469 10.43,-10.428 V 10.432 C 10.43,5.214 5.959,0 0,0"
           style="fill:#1c1c1b;fill-opacity:1;fill-rule:nonzero;stroke:none"
           id="path1362" />
      </g>
      <g
         id="g1364"
         transform="translate(650.0576,136.7019)">
        <path
           d="M 0,0 C -3.726,0 -7.45,2.237 -8.94,5.961 L -207.102,403.777 V 8.942 c 0,-5.962 -4.471,-10.432 -10.43,-10.432 -5.959,0 -10.428,4.47 -10.428,10.432 v 439.533 c 0,5.214 4.469,10.43 10.428,10.43 3.726,0 7.45,-2.236 9.685,-5.961 L -10.43,55.129 v 394.836 c 0,5.959 4.471,10.428 10.43,10.428 5.959,0 10.43,-4.469 10.43,-10.428 V 10.432 C 10.43,5.214 5.959,0 0,0 Z"
           style="fill:none;stroke:#1c1c1b;stroke-width:11.703;stroke-linecap:butt;stroke-linejoin:miter;stroke-miterlimit:10;stroke-dasharray:none;stroke-opacity:1"
           id="path1366" />
      </g>
      <g
         id="g1368"
         transform="translate(963.6794,167.2471)">
        <path
           d="m 0,0 c 60.34,39.483 83.434,131.116 83.434,199.652 0,67.794 -23.094,159.424 -83.434,199.653 -14.899,9.685 -32.035,15.644 -49.914,15.644 -17.879,0 -35.014,-5.959 -49.913,-15.644 -60.344,-40.229 -83.438,-131.859 -83.438,-199.653 0,-68.536 23.094,-160.169 83.438,-199.652 14.899,-10.432 32.034,-16.389 49.913,-16.389 17.879,0 35.015,5.957 49.914,16.389 M 11.919,416.439 C 78.22,372.487 104.294,274.895 104.294,199.652 104.294,123.664 78.22,26.818 11.919,-17.88 -6.704,-29.798 -27.565,-37.25 -49.914,-37.25 c -22.35,0 -43.209,7.452 -61.833,19.37 -66.302,44.698 -92.376,141.544 -92.376,217.532 0,75.243 26.074,172.835 92.376,216.787 18.624,11.921 39.483,19.37 61.833,19.37 21.604,0 43.21,-7.449 61.833,-19.37"
           style="fill:#1c1c1b;fill-opacity:1;fill-rule:nonzero;stroke:none"
           id="path1370" />
      </g>
      <g
         id="g1372"
         transform="translate(963.6794,167.2471)">
        <path
           d="m 0,0 c 60.34,39.483 83.434,131.116 83.434,199.652 0,67.794 -23.094,159.424 -83.434,199.653 -14.899,9.685 -32.035,15.644 -49.914,15.644 -17.879,0 -35.014,-5.959 -49.913,-15.644 -60.344,-40.229 -83.438,-131.859 -83.438,-199.653 0,-68.536 23.094,-160.169 83.438,-199.652 14.899,-10.432 32.034,-16.389 49.913,-16.389 17.879,0 35.015,5.957 49.914,16.389 z M 11.919,416.439 C 78.22,372.487 104.294,274.895 104.294,199.652 104.294,123.664 78.22,26.818 11.919,-17.88 -6.704,-29.798 -27.565,-37.25 -49.914,-37.25 c -22.35,0 -43.209,7.452 -61.833,19.37 -66.302,44.698 -92.376,141.544 -92.376,217.532 0,75.243 26.074,172.835 92.376,216.787 18.624,11.921 39.483,19.37 61.833,19.37 21.604,0 43.21,-7.449 61.833,-19.37 z"
           style="fill:none;stroke:#1c1c1b;stroke-width:11.703;stroke-linecap:butt;stroke-linejoin:miter;stroke-miterlimit:10;stroke-dasharray:none;stroke-opacity:1"
           id="path1374" />
      </g>
      <g
         id="g1376"
         transform="translate(1167.0408,150.1108)">
        <path
           d="m 0,0 v 435.811 c 0,5.959 4.471,10.43 10.432,10.43 5.957,0 10.428,-4.471 10.428,-10.43 V 10.432 h 190.713 c 5.961,0 10.428,-5.214 10.428,-10.432 0,-5.958 -4.467,-10.428 -10.428,-10.428 H 10.432 C 4.471,-10.428 0,-5.958 0,0"
           style="fill:#1c1c1b;fill-opacity:1;fill-rule:nonzero;stroke:none"
           id="path1378" />
      </g>
      <g
         id="g1380"
         transform="translate(1167.0408,150.1108)">
        <path
           d="m 0,0 v 435.811 c 0,5.959 4.471,10.43 10.432,10.43 5.957,0 10.428,-4.471 10.428,-10.43 V 10.432 h 190.713 c 5.961,0 10.428,-5.214 10.428,-10.432 0,-5.958 -4.467,-10.428 -10.428,-10.428 H 10.432 C 4.471,-10.428 0,-5.958 0,0 Z"
           style="fill:none;stroke:#1c1c1b;stroke-width:11.703;stroke-linecap:butt;stroke-linejoin:miter;stroke-miterlimit:10;stroke-dasharray:none;stroke-opacity:1"
           id="path1382" />
      </g>
      <g
         id="g1384"
         transform="translate(1483.328,149.0506)">
        <path
           d="m 0,0 c 0,5.214 136.327,419.421 146.758,452.944 1.491,4.471 5.958,6.704 10.432,6.704 4.467,0 8.938,-2.233 10.429,-6.704 C 178.794,419.421 314.377,4.471 314.377,0 c 0,-5.958 -4.468,-10.428 -10.429,-10.428 -4.47,0 -8.941,2.233 -9.685,6.704 L 157.19,417.184 20.86,-3.724 C 19.367,-8.195 14.899,-10.428 10.428,-10.428 5.214,-10.428 0,-5.958 0,0"
           style="fill:#1c1c1b;fill-opacity:1;fill-rule:nonzero;stroke:none"
           id="path1386" />
      </g>
      <g
         id="g1388"
         transform="translate(1483.328,149.0506)">
        <path
           d="m 0,0 c 0,5.214 136.327,419.421 146.758,452.944 1.491,4.471 5.958,6.704 10.432,6.704 4.467,0 8.938,-2.233 10.429,-6.704 C 178.794,419.421 314.377,4.471 314.377,0 c 0,-5.958 -4.468,-10.428 -10.429,-10.428 -4.47,0 -8.941,2.233 -9.685,6.704 L 157.19,417.184 20.86,-3.724 C 19.367,-8.195 14.899,-10.428 10.428,-10.428 5.214,-10.428 0,-5.958 0,0 Z"
           style="fill:none;stroke:#1c1c1b;stroke-width:11.703;stroke-linecap:butt;stroke-linejoin:miter;stroke-miterlimit:10;stroke-dasharray:none;stroke-opacity:1"
           id="path1390" />
      </g>
      <g
         id="g1392"
         transform="translate(582.5961,58.6052)">
        <path
           d="m 0,0 v -49.992 c 0,-1.153 -1.152,-2.304 -2.304,-2.304 -1.315,0 -2.302,1.151 -2.302,2.304 V 0 c 0,1.154 0.987,2.304 2.302,2.304 C -1.152,2.304 0,1.154 0,0 m -2.304,14.803 c -2.137,0 -3.782,1.643 -3.782,3.617 0,2.137 1.645,3.784 3.782,3.784 1.974,0 3.783,-1.647 3.783,-3.784 0,-1.974 -1.809,-3.617 -3.783,-3.617"
           style="fill:#1c1c1b;fill-opacity:1;fill-rule:nonzero;stroke:none"
           id="path1394" />
      </g>
      <g
         id="g1396"
         transform="translate(582.5961,58.6052)">
        <path
           d="m 0,0 v -49.992 c 0,-1.153 -1.152,-2.304 -2.304,-2.304 -1.315,0 -2.302,1.151 -2.302,2.304 V 0 c 0,1.154 0.987,2.304 2.302,2.304 C -1.152,2.304 0,1.154 0,0 Z m -2.304,14.803 c -2.137,0 -3.782,1.643 -3.782,3.617 0,2.137 1.645,3.784 3.782,3.784 1.974,0 3.783,-1.647 3.783,-3.784 0,-1.974 -1.809,-3.617 -3.783,-3.617 z"
           style="fill:none;stroke:#1c1c1b;stroke-width:5.852;stroke-linecap:butt;stroke-linejoin:miter;stroke-miterlimit:10;stroke-dasharray:none;stroke-opacity:1"
           id="path1398" />
      </g>
      <g
         id="g1400"
         transform="translate(651.6629,38.2151)">
        <path
           d="m 0,0 v -29.275 c 0,-1.314 -1.15,-2.3 -2.302,-2.3 -1.315,0 -2.302,0.986 -2.302,2.3 V 0 c 0,10.032 -5.591,19.733 -16.61,19.733 -13.814,0 -19.076,-12.335 -19.076,-26.147 v -23.024 c 0,-1.317 -0.987,-2.304 -2.304,-2.304 -1.315,0 -2.302,0.987 -2.302,2.304 v 50.322 c 0,1.316 0.987,2.303 2.302,2.303 1.317,0 2.304,-0.987 2.304,-2.303 v -8.058 c 4.11,6.907 10.853,11.511 19.076,11.511 C -7.728,24.337 0,12.499 0,0"
           style="fill:#1c1c1b;fill-opacity:1;fill-rule:nonzero;stroke:none"
           id="path1402" />
      </g>
      <g
         id="g1404"
         transform="translate(651.6629,38.2151)">
        <path
           d="m 0,0 v -29.275 c 0,-1.314 -1.15,-2.3 -2.302,-2.3 -1.315,0 -2.302,0.986 -2.302,2.3 V 0 c 0,10.032 -5.591,19.733 -16.61,19.733 -13.814,0 -19.076,-12.335 -19.076,-26.147 v -23.024 c 0,-1.317 -0.987,-2.304 -2.304,-2.304 -1.315,0 -2.302,0.987 -2.302,2.304 v 50.322 c 0,1.316 0.987,2.303 2.302,2.303 1.317,0 2.304,-0.987 2.304,-2.303 v -8.058 c 4.11,6.907 10.853,11.511 19.076,11.511 C -7.728,24.337 0,12.499 0,0 Z"
           style="fill:none;stroke:#1c1c1b;stroke-width:5.852;stroke-linecap:butt;stroke-linejoin:miter;stroke-miterlimit:10;stroke-dasharray:none;stroke-opacity:1"
           id="path1406" />
      </g>
      <g
         id="g1408"
         transform="translate(721.0598,33.6109)">
        <path
           d="m 0,0 c 0,12.332 -8.882,24.007 -21.872,24.007 -12.829,0 -21.874,-11.675 -21.874,-24.007 0,-12.335 9.045,-24.011 21.874,-24.011 C -8.882,-24.011 0,-12.335 0,0 m 5.756,71.372 v -96.206 c 0,-1.317 -0.987,-2.304 -2.302,-2.304 -1.317,0 -2.302,0.987 -2.302,2.304 v 10.525 c -4.606,-8.552 -13.157,-14.309 -23.024,-14.309 -15.459,0 -26.478,13.815 -26.478,28.618 0,14.799 11.019,28.615 26.478,28.615 9.867,0 18.418,-5.921 23.024,-14.473 v 57.23 c 0,1.15 0.985,2.301 2.302,2.301 1.315,0 2.302,-1.151 2.302,-2.301"
           style="fill:#1c1c1b;fill-opacity:1;fill-rule:nonzero;stroke:none"
           id="path1410" />
      </g>
      <g
         id="g1412"
         transform="translate(721.0598,33.6109)">
        <path
           d="m 0,0 c 0,12.332 -8.882,24.007 -21.872,24.007 -12.829,0 -21.874,-11.675 -21.874,-24.007 0,-12.335 9.045,-24.011 21.874,-24.011 C -8.882,-24.011 0,-12.335 0,0 Z m 5.756,71.372 v -96.206 c 0,-1.317 -0.987,-2.304 -2.302,-2.304 -1.317,0 -2.302,0.987 -2.302,2.304 v 10.525 c -4.606,-8.552 -13.157,-14.309 -23.024,-14.309 -15.459,0 -26.478,13.815 -26.478,28.618 0,14.799 11.019,28.615 26.478,28.615 9.867,0 18.418,-5.921 23.024,-14.473 v 57.23 c 0,1.15 0.985,2.301 2.302,2.301 1.315,0 2.302,-1.151 2.302,-2.301 z"
           style="fill:none;stroke:#1c1c1b;stroke-width:5.852;stroke-linecap:butt;stroke-linejoin:miter;stroke-miterlimit:10;stroke-dasharray:none;stroke-opacity:1"
           id="path1414" />
      </g>
      <g
         id="g1416"
         transform="translate(793.5804,58.6052)">
        <path
           d="m 0,0 v -15.949 -34.373 c 0,-1.317 -1.15,-2.304 -2.302,-2.304 -1.315,0 -2.302,0.987 -2.302,2.304 v 9.538 c -3.782,-7.564 -10.525,-12.992 -19.077,-12.992 -13.65,0 -21.215,11.842 -21.215,24.341 V 0 c 0,1.154 0.987,2.304 2.302,2.304 1.315,0 2.302,-1.15 2.302,-2.304 v -29.435 c 0,-9.868 5.593,-19.737 16.611,-19.737 15.458,0 19.077,14.473 19.077,30.425 V 0 c 0,1.154 0.987,2.304 2.302,2.304 C -1.15,2.304 0,1.154 0,0"
           style="fill:#1c1c1b;fill-opacity:1;fill-rule:nonzero;stroke:none"
           id="path1418" />
      </g>
      <g
         id="g1420"
         transform="translate(793.5804,58.6052)">
        <path
           d="m 0,0 v -15.949 -34.373 c 0,-1.317 -1.15,-2.304 -2.302,-2.304 -1.315,0 -2.302,0.987 -2.302,2.304 v 9.538 c -3.782,-7.564 -10.525,-12.992 -19.077,-12.992 -13.65,0 -21.215,11.842 -21.215,24.341 V 0 c 0,1.154 0.987,2.304 2.302,2.304 1.315,0 2.302,-1.15 2.302,-2.304 v -29.435 c 0,-9.868 5.593,-19.737 16.611,-19.737 15.458,0 19.077,14.473 19.077,30.425 V 0 c 0,1.154 0.987,2.304 2.302,2.304 C -1.15,2.304 0,1.154 0,0 Z"
           style="fill:none;stroke:#1c1c1b;stroke-width:5.852;stroke-linecap:butt;stroke-linejoin:miter;stroke-miterlimit:10;stroke-dasharray:none;stroke-opacity:1"
           id="path1422" />
      </g>
      <g
         id="g1424"
         transform="translate(901.6238,38.0484)">
        <path
           d="m 0,0 v -29.435 c 0,-1.317 -1.152,-2.304 -2.302,-2.304 -1.317,0 -2.302,0.987 -2.302,2.304 V 0 c 0,9.868 -5.593,19.57 -16.611,19.57 -13.814,0 -19.077,-14.799 -19.077,-26.311 v -22.694 c 0,-1.317 -1.152,-2.304 -2.302,-2.304 -1.315,0 -2.302,0.987 -2.302,2.304 V 0 c 0,9.868 -5.593,19.57 -16.611,19.57 -13.977,0 -19.733,-11.019 -19.24,-25.654 0,-0.327 0.163,-0.987 0,-1.151 v -22.2 c 0,-1.317 -0.987,-2.304 -2.304,-2.304 -1.315,0 -2.302,0.987 -2.302,2.304 v 50.322 c 0,1.317 0.987,2.304 2.302,2.304 1.317,0 2.304,-0.987 2.304,-2.304 v -8.388 c 3.946,7.071 11.018,11.678 19.24,11.678 9.375,0 16.611,-5.921 19.572,-14.639 3.782,8.552 11.181,14.639 20.72,14.639 C -7.73,24.177 0,12.499 0,0"
           style="fill:#1c1c1b;fill-opacity:1;fill-rule:nonzero;stroke:none"
           id="path1426" />
      </g>
      <g
         id="g1428"
         transform="translate(901.6238,38.0484)">
        <path
           d="m 0,0 v -29.435 c 0,-1.317 -1.152,-2.304 -2.302,-2.304 -1.317,0 -2.302,0.987 -2.302,2.304 V 0 c 0,9.868 -5.593,19.57 -16.611,19.57 -13.814,0 -19.077,-14.799 -19.077,-26.311 v -22.694 c 0,-1.317 -1.152,-2.304 -2.302,-2.304 -1.315,0 -2.302,0.987 -2.302,2.304 V 0 c 0,9.868 -5.593,19.57 -16.611,19.57 -13.977,0 -19.733,-11.019 -19.24,-25.654 0,-0.327 0.163,-0.987 0,-1.151 v -22.2 c 0,-1.317 -0.987,-2.304 -2.304,-2.304 -1.315,0 -2.302,0.987 -2.302,2.304 v 50.322 c 0,1.317 0.987,2.304 2.302,2.304 1.317,0 2.304,-0.987 2.304,-2.304 v -8.388 c 3.946,7.071 11.018,11.678 19.24,11.678 9.375,0 16.611,-5.921 19.572,-14.639 3.782,8.552 11.181,14.639 20.72,14.639 C -7.73,24.177 0,12.499 0,0 Z"
           style="fill:none;stroke:#1c1c1b;stroke-width:5.852;stroke-linecap:butt;stroke-linejoin:miter;stroke-miterlimit:10;stroke-dasharray:none;stroke-opacity:1"
           id="path1430" />
      </g>
      <g
         id="g1432"
         transform="translate(970.854,36.0747)">
        <path
           d="M 0,0 C -0.987,11.349 -9.705,21.71 -21.707,21.71 -33.712,21.71 -42.264,11.349 -43.416,0 Z m 4.931,-2.3 c 0,-1.317 -1.15,-2.304 -2.464,-2.304 h -45.883 c 1.152,-11.345 9.704,-21.707 21.709,-21.707 8.221,0 14.306,3.124 18.91,9.702 0.493,0.66 1.15,1.153 1.974,1.153 1.316,0 2.303,-0.987 2.303,-2.304 0,-0.493 -0.166,-0.823 -0.33,-1.15 -4.604,-8.058 -13.816,-12.005 -22.857,-12.005 -15.459,0 -26.478,13.812 -26.478,28.615 0,14.799 11.019,28.614 26.478,28.614 15.456,0 26.638,-13.815 26.638,-28.614"
           style="fill:#1c1c1b;fill-opacity:1;fill-rule:nonzero;stroke:none"
           id="path1434" />
      </g>
      <g
         id="g1436"
         transform="translate(970.854,36.0747)">
        <path
           d="M 0,0 C -0.987,11.349 -9.705,21.71 -21.707,21.71 -33.712,21.71 -42.264,11.349 -43.416,0 Z m 4.931,-2.3 c 0,-1.317 -1.15,-2.304 -2.464,-2.304 h -45.883 c 1.152,-11.345 9.704,-21.707 21.709,-21.707 8.221,0 14.306,3.124 18.91,9.702 0.493,0.66 1.15,1.153 1.974,1.153 1.316,0 2.303,-0.987 2.303,-2.304 0,-0.493 -0.166,-0.823 -0.33,-1.15 -4.604,-8.058 -13.816,-12.005 -22.857,-12.005 -15.459,0 -26.478,13.812 -26.478,28.615 0,14.799 11.019,28.614 26.478,28.614 15.456,0 26.638,-13.815 26.638,-28.614 z"
           style="fill:none;stroke:#1c1c1b;stroke-width:5.852;stroke-linecap:butt;stroke-linejoin:miter;stroke-miterlimit:10;stroke-dasharray:none;stroke-opacity:1"
           id="path1438" />
      </g>
      <g
         id="g1440"
         transform="translate(1042.5496,38.2151)">
        <path
           d="m 0,0 v -29.275 c 0,-1.314 -1.15,-2.3 -2.3,-2.3 -1.317,0 -2.304,0.986 -2.304,2.3 V 0 c 0,10.032 -5.591,19.733 -16.61,19.733 -13.815,0 -19.076,-12.335 -19.076,-26.147 v -23.024 c 0,-1.317 -0.987,-2.304 -2.304,-2.304 -1.314,0 -2.3,0.987 -2.3,2.304 v 50.322 c 0,1.316 0.986,2.303 2.3,2.303 1.317,0 2.304,-0.987 2.304,-2.303 v -8.058 c 4.11,6.907 10.852,11.511 19.076,11.511 C -7.728,24.337 0,12.499 0,0"
           style="fill:#1c1c1b;fill-opacity:1;fill-rule:nonzero;stroke:none"
           id="path1442" />
      </g>
      <g
         id="g1444"
         transform="translate(1042.5496,38.2151)">
        <path
           d="m 0,0 v -29.275 c 0,-1.314 -1.15,-2.3 -2.3,-2.3 -1.317,0 -2.304,0.986 -2.304,2.3 V 0 c 0,10.032 -5.591,19.733 -16.61,19.733 -13.815,0 -19.076,-12.335 -19.076,-26.147 v -23.024 c 0,-1.317 -0.987,-2.304 -2.304,-2.304 -1.314,0 -2.3,0.987 -2.3,2.304 v 50.322 c 0,1.316 0.986,2.303 2.3,2.303 1.317,0 2.304,-0.987 2.304,-2.303 v -8.058 c 4.11,6.907 10.852,11.511 19.076,11.511 C -7.728,24.337 0,12.499 0,0 Z"
           style="fill:none;stroke:#1c1c1b;stroke-width:5.852;stroke-linecap:butt;stroke-linejoin:miter;stroke-miterlimit:10;stroke-dasharray:none;stroke-opacity:1"
           id="path1446" />
      </g>
      <g
         id="g1448"
         transform="translate(1092.3781,61.239)">
        <path
           d="M 0,0 C 1.317,0 2.304,-1.154 2.304,-2.304 2.304,-3.621 1.317,-4.607 0,-4.607 h -12.332 v -48.349 c 0,-1.15 -0.987,-2.303 -2.304,-2.303 -1.313,0 -2.3,1.153 -2.3,2.303 v 48.349 h -11.842 c -1.317,0 -2.304,0.986 -2.304,2.303 0,1.15 0.987,2.304 2.304,2.304 h 11.842 v 17.76 c 0,1.317 0.987,2.303 2.3,2.303 1.317,0 2.304,-0.986 2.304,-2.303 V 0 Z"
           style="fill:#1c1c1b;fill-opacity:1;fill-rule:nonzero;stroke:none"
           id="path1450" />
      </g>
      <g
         id="g1452"
         transform="translate(1092.3781,61.239)">
        <path
           d="M 0,0 C 1.317,0 2.304,-1.154 2.304,-2.304 2.304,-3.621 1.317,-4.607 0,-4.607 h -12.332 v -48.349 c 0,-1.15 -0.987,-2.303 -2.304,-2.303 -1.313,0 -2.3,1.153 -2.3,2.303 v 48.349 h -11.842 c -1.317,0 -2.304,0.986 -2.304,2.303 0,1.15 0.987,2.304 2.304,2.304 h 11.842 v 17.76 c 0,1.317 0.987,2.303 2.3,2.303 1.317,0 2.304,-0.986 2.304,-2.303 V 0 Z"
           style="fill:none;stroke:#1c1c1b;stroke-width:5.852;stroke-linecap:butt;stroke-linejoin:miter;stroke-miterlimit:10;stroke-dasharray:none;stroke-opacity:1"
           id="path1454" />
      </g>
      <g
         id="g1456"
         transform="translate(1158.3192,33.7743)">
        <path
           d="m 0,0 c 0,12.332 -8.878,24.011 -21.87,24.011 -12.829,0 -21.874,-11.679 -21.874,-24.011 0,-12.335 9.045,-24.011 21.874,-24.011 C -8.878,-24.011 0,-12.335 0,0 m 5.758,25.324 v -50.158 c 0,-1.314 -0.987,-2.301 -2.304,-2.301 -1.314,0 -2.3,0.987 -2.3,2.301 v 10.525 c -4.605,-8.385 -13.156,-14.306 -23.024,-14.306 -15.46,0 -26.478,13.812 -26.478,28.615 0,14.799 11.018,28.615 26.478,28.615 9.868,0 18.419,-5.921 23.024,-14.309 v 11.018 c 0,1.154 0.986,2.304 2.3,2.304 1.317,0 2.304,-1.15 2.304,-2.304"
           style="fill:#1c1c1b;fill-opacity:1;fill-rule:nonzero;stroke:none"
           id="path1458" />
      </g>
      <g
         id="g1460"
         transform="translate(1158.3192,33.7743)">
        <path
           d="m 0,0 c 0,12.332 -8.878,24.011 -21.87,24.011 -12.829,0 -21.874,-11.679 -21.874,-24.011 0,-12.335 9.045,-24.011 21.874,-24.011 C -8.878,-24.011 0,-12.335 0,0 Z m 5.758,25.324 v -50.158 c 0,-1.314 -0.987,-2.301 -2.304,-2.301 -1.314,0 -2.3,0.987 -2.3,2.301 v 10.525 c -4.605,-8.385 -13.156,-14.306 -23.024,-14.306 -15.46,0 -26.478,13.812 -26.478,28.615 0,14.799 11.018,28.615 26.478,28.615 9.868,0 18.419,-5.921 23.024,-14.309 v 11.018 c 0,1.154 0.986,2.304 2.3,2.304 1.317,0 2.304,-1.15 2.304,-2.304 z"
           style="fill:none;stroke:#1c1c1b;stroke-width:5.852;stroke-linecap:butt;stroke-linejoin:miter;stroke-miterlimit:10;stroke-dasharray:none;stroke-opacity:1"
           id="path1462" />
      </g>
      <g
         id="g1464"
         transform="translate(1213.0819,59.0986)">
        <path
           d="m 0,0 c 0,-1.48 -0.82,-2.3 -2.137,-2.467 -13.486,-1.97 -19.57,-12.989 -19.57,-25.818 v -22.037 c 0,-1.317 -0.987,-2.304 -2.304,-2.304 -1.313,0 -2.3,0.987 -2.3,2.304 v 50.159 c 0,1.317 0.987,2.303 2.3,2.303 1.317,0 2.304,-0.986 2.304,-2.303 V -10.358 C -17.926,-3.947 -10.362,2.14 -2.467,2.14 -1.314,2.14 0,1.317 0,0"
           style="fill:#1c1c1b;fill-opacity:1;fill-rule:nonzero;stroke:none"
           id="path1466" />
      </g>
      <g
         id="g1468"
         transform="translate(1213.0819,59.0986)">
        <path
           d="m 0,0 c 0,-1.48 -0.82,-2.3 -2.137,-2.467 -13.486,-1.97 -19.57,-12.989 -19.57,-25.818 v -22.037 c 0,-1.317 -0.987,-2.304 -2.304,-2.304 -1.313,0 -2.3,0.987 -2.3,2.304 v 50.159 c 0,1.317 0.987,2.303 2.3,2.303 1.317,0 2.304,-0.986 2.304,-2.303 V -10.358 C -17.926,-3.947 -10.362,2.14 -2.467,2.14 -1.314,2.14 0,1.317 0,0 Z"
           style="fill:none;stroke:#1c1c1b;stroke-width:5.852;stroke-linecap:butt;stroke-linejoin:miter;stroke-miterlimit:10;stroke-dasharray:none;stroke-opacity:1"
           id="path1470" />
      </g>
      <g
         id="g1472"
         transform="translate(1241.0367,58.6052)">
        <path
           d="m 0,0 v -49.992 c 0,-1.153 -1.154,-2.304 -2.304,-2.304 -1.313,0 -2.3,1.151 -2.3,2.304 V 0 c 0,1.154 0.987,2.304 2.3,2.304 C -1.154,2.304 0,1.154 0,0 m -2.304,14.803 c -2.137,0 -3.78,1.643 -3.78,3.617 0,2.137 1.643,3.784 3.78,3.784 1.974,0 3.784,-1.647 3.784,-3.784 0,-1.974 -1.81,-3.617 -3.784,-3.617"
           style="fill:#1c1c1b;fill-opacity:1;fill-rule:nonzero;stroke:none"
           id="path1474" />
      </g>
      <g
         id="g1476"
         transform="translate(1241.0367,58.6052)">
        <path
           d="m 0,0 v -49.992 c 0,-1.153 -1.154,-2.304 -2.304,-2.304 -1.313,0 -2.3,1.151 -2.3,2.304 V 0 c 0,1.154 0.987,2.304 2.3,2.304 C -1.154,2.304 0,1.154 0,0 Z m -2.304,14.803 c -2.137,0 -3.78,1.643 -3.78,3.617 0,2.137 1.643,3.784 3.78,3.784 1.974,0 3.784,-1.647 3.784,-3.784 0,-1.974 -1.81,-3.617 -3.784,-3.617 z"
           style="fill:none;stroke:#1c1c1b;stroke-width:5.852;stroke-linecap:butt;stroke-linejoin:miter;stroke-miterlimit:10;stroke-dasharray:none;stroke-opacity:1"
           id="path1478" />
      </g>
      <g
         id="g1480"
         transform="translate(1312.7356,33.7743)">
        <path
           d="m 0,0 c 0,12.332 -8.878,24.011 -21.87,24.011 -12.829,0 -21.874,-11.679 -21.874,-24.011 0,-12.335 9.045,-24.011 21.874,-24.011 C -8.878,-24.011 0,-12.335 0,0 m 5.758,25.324 v -50.158 c 0,-1.314 -0.987,-2.301 -2.304,-2.301 -1.314,0 -2.3,0.987 -2.3,2.301 v 10.525 c -4.605,-8.385 -13.156,-14.306 -23.024,-14.306 -15.46,0 -26.478,13.812 -26.478,28.615 0,14.799 11.018,28.615 26.478,28.615 9.868,0 18.419,-5.921 23.024,-14.309 v 11.018 c 0,1.154 0.986,2.304 2.3,2.304 1.317,0 2.304,-1.15 2.304,-2.304"
           style="fill:#1c1c1b;fill-opacity:1;fill-rule:nonzero;stroke:none"
           id="path1482" />
      </g>
      <g
         id="g1484"
         transform="translate(1312.7356,33.7743)">
        <path
           d="m 0,0 c 0,12.332 -8.878,24.011 -21.87,24.011 -12.829,0 -21.874,-11.679 -21.874,-24.011 0,-12.335 9.045,-24.011 21.874,-24.011 C -8.878,-24.011 0,-12.335 0,0 Z m 5.758,25.324 v -50.158 c 0,-1.314 -0.987,-2.301 -2.304,-2.301 -1.314,0 -2.3,0.987 -2.3,2.301 v 10.525 c -4.605,-8.385 -13.156,-14.306 -23.024,-14.306 -15.46,0 -26.478,13.812 -26.478,28.615 0,14.799 11.018,28.615 26.478,28.615 9.868,0 18.419,-5.921 23.024,-14.309 v 11.018 c 0,1.154 0.986,2.304 2.3,2.304 1.317,0 2.304,-1.15 2.304,-2.304 z"
           style="fill:none;stroke:#1c1c1b;stroke-width:5.852;stroke-linecap:butt;stroke-linejoin:miter;stroke-miterlimit:10;stroke-dasharray:none;stroke-opacity:1"
           id="path1486" />
      </g>
      <g
         id="g1488"
         transform="translate(447.0669,34.3115)">
        <path
           d="m 0,0 h -428.152 v 664.859 h 1857.17 V 0 H 999.79"
           style="fill:none;stroke:#1c1c1b;stroke-width:23.407;stroke-linecap:butt;stroke-linejoin:miter;stroke-miterlimit:10;stroke-dasharray:none;stroke-opacity:1"
           id="path1490" />
      </g>
    </g>
  </g>
</svg>
