<?xml version="1.0" standalone="no"?>
<!DOCTYPE svg PUBLIC "-//W3C//DTD SVG 20010904//EN"
 "http://www.w3.org/TR/2001/REC-SVG-20010904/DTD/svg10.dtd">
<svg version="1.0" xmlns="http://www.w3.org/2000/svg"
 width="700.000000pt" height="700.000000pt" viewBox="0 0 700.000000 700.000000"
 preserveAspectRatio="xMidYMid meet">
<metadata>
Created by potrace 1.14, written by Peter Selinger 2001-2017
</metadata>
<g transform="translate(0.000000,700.000000) scale(0.100000,-0.100000)"
fill="#000000" stroke="none">
<path d="M58 6984 c-63 -34 -58 256 -58 -3484 0 -3751 -5 -3451 60 -3485 26
-13 411 -15 3440 -15 3751 0 3451 -5 3485 60 13 26 15 411 15 3440 0 3751 5
3451 -60 3485 -26 13 -410 15 -3442 15 -2999 -1 -3416 -3 -3440 -16z m6682
-3484 l0 -3240 -3240 0 -3240 0 0 3240 0 3240 3240 0 3240 0 0 -3240z"/>
<path d="M2293 6099 c-23 -11 -53 -38 -70 -62 l-28 -42 0 -2495 0 -2495 24
-36 c14 -20 41 -47 60 -60 l35 -24 1186 0 1186 0 37 25 c43 29 87 108 87 155
0 17 -12 54 -26 82 -20 42 -35 57 -77 77 l-51 26 -1048 0 -1048 0 0 1130 0
1130 698 2 699 3 36 28 c109 83 94 249 -27 315 -28 15 -91 17 -718 20 l-688 3
0 934 0 935 1048 0 c997 0 1049 1 1087 19 67 31 115 102 115 169 0 44 -45 124
-87 152 l-37 25 -1175 3 c-1171 2 -1176 2 -1218 -19z"/>
</g>
</svg>
